# xmcd
# Copyright (C) 1995-1998 Ti Kan
#
# Track frame offsets:
#       150
#       11591
#       22489
#       30133
#       54457
#
# Disc length: 1155 seconds
#
# Revision: 0
# Processed by: cddbd v1.5.2PL0 Copyright (c) Steve Scherf et al.
# Submitted via: CD-Import v1.0
#
DISCID=34048105
DTITLE=Otiacs - Hands Up It's The Hoatsy Poatsy
DYEAR=1900
DGENRE=
TTITLE0=Oozlin Daddy Blues
TTITLE1=Two Little Monkeys
TTITLE2=No One But You
TTITLE3=Howie
TTITLE4=Data Track
EXTD=
EXTT0=
EXTT1=
EXTT2=
EXTT3=
EXTT4=
PLAYORDER=
